<?xml version="1.0" encoding="iso-8859-1"?>
<!-- Generator: Adobe Illustrator 16.0.0, SVG Export Plug-In . SVG Version: 6.00 Build 0)  -->
<!DOCTYPE svg PUBLIC "-//W3C//DTD SVG 1.1//EN" "http://www.w3.org/Graphics/SVG/1.1/DTD/svg11.dtd">
<svg version="1.1" id="Capa_1" xmlns="http://www.w3.org/2000/svg" xmlns:xlink="http://www.w3.org/1999/xlink" x="0px" y="0px"
	 width="612.016px" height="612.016px" viewBox="0 0 612.016 612.016" style="enable-background:new 0 0 612.016 612.016;"
	 xml:space="preserve">
<g>
	<path d="M178.624,242.367c-38.651,0-58.198,30.622-58.198,63.656c0,32.971,19.563,63.623,58.198,63.623
		c38.619,0,58.23-30.67,58.23-63.623C236.854,272.99,217.227,242.367,178.624,242.367z M178.624,351.625
		c-26.989,0-38.333-23.277-38.333-45.584c0-22.356,11.344-45.632,38.333-45.632c26.989,0,38.333,23.276,38.333,45.632
		C216.958,328.348,205.613,351.625,178.624,351.625z"/>
	<path d="M592.611,136.855H19.436C8.711,136.855,0,145.518,0,156.26v299.511c0,10.758,8.711,19.389,19.436,19.389h573.175
		c10.726,0,19.404-8.631,19.404-19.389V156.26C612,145.518,603.321,136.855,592.611,136.855z M436.01,251.062h23.244v116.412H436.01
		V251.062z M38.793,175.665h264.113v260.701H38.793V175.665z"/>
</g>
<g>
</g>
<g>
</g>
<g>
</g>
<g>
</g>
<g>
</g>
<g>
</g>
<g>
</g>
<g>
</g>
<g>
</g>
<g>
</g>
<g>
</g>
<g>
</g>
<g>
</g>
<g>
</g>
<g>
</g>
</svg>
